<?xml version="1.0" encoding="UTF-8"?><svg id="Layer_2" xmlns="http://www.w3.org/2000/svg" xmlns:xlink="http://www.w3.org/1999/xlink" viewBox="0 0 179.42 100.84"><defs><style>.cls-1{fill:none;}.cls-2{letter-spacing:-.02em;}.cls-3{clip-path:url(#clippath);}.cls-4{fill:#fff;}.cls-5,.cls-6{fill:#b2d236;}.cls-7{letter-spacing:0em;}.cls-6{font-family:SimplonNorm-BoldItalic, 'Simplon Norm';font-size:29.19px;}</style><clipPath id="clippath"><rect class="cls-1" width="179.42" height="89.71"/></clipPath></defs><g id="Layer_1-2"><g><text class="cls-6" transform="translate(113.65 91.97)"><tspan x="0" y="0">C</tspan><tspan class="cls-7" x="17.66" y="0">r</tspan><tspan class="cls-2" x="28.23" y="0">e</tspan><tspan x="43.56" y="0">w</tspan></text><g class="cls-3"><g><path class="cls-5" d="M155.85,48.69c-.64-.19-1.33-.16-1.96,.07-.63,.23-1.17,.66-1.53,1.23-.19,.32-.31,.67-.35,1.04s.01,.74,.14,1.09c.13,.35,.33,.66,.6,.92,.27,.26,.59,.45,.94,.57,.65,.19,1.34,.17,1.97-.06,.63-.23,1.17-.67,1.54-1.23,.19-.32,.31-.67,.35-1.04,.04-.37-.01-.74-.14-1.09-.13-.35-.33-.66-.6-.92-.27-.26-.59-.45-.94-.56"/><path class="cls-4" d="M142.18,54.39c-.55,0-1.08-.21-1.49-.59-.4-.38-.65-.9-.68-1.45-.03-.55,.14-1.1,.5-1.52s.86-.7,1.4-.77c1.07-.12,1.38-.54,1.56-.79,.55-.75,.68-1.76,.39-3.01-.29-1.19-.84-2.3-1.61-3.26l-.58,.8c-2.74,3.81-6.96,8.94-11.61,8.68-2.22-.12-3.53-1.85-4.13-3.43-1.07,2.19-2.8,4.18-5.14,4.45-.83,.12-1.67,.06-2.47-.2-.8-.25-1.53-.69-2.13-1.27-.75-.76-1.32-1.68-1.66-2.69-1.82,2.11-4.17,4.12-6.65,4.28-.84,.09-1.68-.02-2.47-.33-.78-.3-1.49-.78-2.05-1.41-1.46-1.62-2.04-4.77-1.57-7.54,.2-1.18,1.19-1.44,2.38-1.24,1.18,.2,2.08,1.06,1.88,2.24-.23,1.36,0,3.03,.53,3.63,.16,.18,.4,.36,1.01,.32,1.78-.12,5-4.06,6.58-6.86,.24-.43,.62-.76,1.07-.93,.45-.18,.96-.19,1.42-.04,.98,.3,1.86,.77,1.77,1.79-.12,1.57-.27,6.22,1.86,5.95,2.13-.27,3.52-3.85,3.87-5.65,.21-1.09,1.11-1.38,2.2-1.27,1.1,.11,2.07,.55,2.09,1.66,.05,2.06,.78,4.05,1.77,4.23,2.54,.47,5.79-3.89,7.94-6.87,.58-.81,1.13-1.59,1.66-2.22,.88-1.09,2.6-1.55,4.45-.11,1.43,1.1,2.82,3.18,3.53,5.32,.95,2.86,.66,5.57-.83,7.6-1.08,1.47-2.57,2.3-4.56,2.54h-.23Zm-34.85-17.6c.29-1.32-.44-2.6-1.61-2.86-1.17-.26-2.35,.62-2.64,1.94-.29,1.32,.44,2.6,1.61,2.86,1.17,.26,2.35-.62,2.64-1.94h0Zm-57.54,4.65c.17-.17,.33-.36,.5-.54,4.13-4.7,4.28-9.35,3.94-10.45-.77,.59-2.94,3.43-4.03,8.32-.2,.88-.33,1.77-.41,2.67Zm47.5-3c1.18,.23,2.01,1.17,1.78,2.34-.54,2.81-2.4,8.82-4.04,11.54-1.38,2.29-2.98,2.81-4.13,2.82h-.15c-2.74-.08-4.55-2.9-5.66-5.02-.45-.85-.85-1.67-1.22-2.45-.74,1.61-1.86,3.03-3.53,3.74-2.18,.92-3.85,.45-4.88-.1-.71-.4-1.34-.93-1.84-1.57-1.34,2.14-3.35,4.17-6.21,4.11-2.54-.07-3.95-1.27-4.69-2.26-.2-.28-.38-.57-.54-.88-.19,.18-.39,.34-.59,.51-1.59,1.57-3.73,2.45-5.97,2.44-1.44-.02-2.86-.33-4.17-.92-1.85-.81-3.4-2.17-4.45-3.89-3.77,1.91-7.79,2.58-11.41,2.65,1.32,3.81,2.73,7.02,5.8,11.71,.82,1.26,.72,3.06-.93,3.93-1.1,.58-1.99-.54-2.41-1.18-3.68-5.66-5.7-10.12-7.1-14.67-2.29-.22-4.55-.68-6.75-1.38-1.37-.44-2.06-1.62-1.72-3.18,.26-1.17,.85-1.57,3.05-.93,1.41,.43,2.85,.74,4.31,.93-1.39-7.53-.07-13.3,1.84-17.39,2.35-5.03,6.84-7.91,10.22-6.56,1.48,.59,4.63,2.79,2.06,10.49-1.16,3.47-2.61,5-2.69,5.08-.76,.9-2.57,1.62-3.57,.95-1-.66-.73-1.59-.07-2.59,.92-1.52,1.67-3.14,2.22-4.83,1.24-3.72,.58-5.04,.45-5.08-.52-.21-2.99,.75-4.68,4.37-1.69,3.62-2.83,8.9-1.27,15.93,3.52,.06,7.57-.46,11.22-2.43-.27-1.86-.21-4.11,.4-6.83,1.27-5.72,3.95-9.72,5.91-11.03,.9-.61,2-.85,3.07-.68,1.07,.17,2.04,.75,2.7,1.61,1.97,2.5,1.36,9.81-4.1,16.03-.88,1-1.84,1.92-2.88,2.75,.58,1.01,1.47,1.79,2.54,2.24,.73,.33,1.53,.51,2.33,.53,.58-.05,1.14-.19,1.67-.42,2.01-.85,3.81-3.3,4.83-5.98,.41-1.08,1.33-1.3,2.43-.95,1.1,.35,1.91,1.34,1.61,2.46-.32,1.19-.53,3.69,.13,4.58,.1,.13,.37,.48,1.33,.51h.04c1.65,0,3.42-3.66,3.96-5.57,.27-.97,1.18-1.37,2.18-1.16,1.14,.24,1.77,.62,1.95,1.61,.21,1.1,.91,2.75,1.86,3.11,.22,.08,.49,.18,1.13-.08,1.76-.72,2.96-3.34,2.92-5.63-.02-1.1,.57-2.19,1.66-2.34,1.09-.15,2.13-.05,2.41,1.01,0,.04,.66,2.69,3.28,7.65,.95,1.81,1.62,2.44,1.91,2.64,.19-.19,.35-.4,.48-.64,1.16-1.91,2.95-7.23,3.49-10.1,.23-1.18,1.3-1.75,2.48-1.53"/></g></g></g></g></svg>