<?xml version="1.0" encoding="UTF-8"?><svg id="Layer_2" xmlns="http://www.w3.org/2000/svg" viewBox="0 0 63.57 65.69"><defs><style>.cls-1{fill:#fff;}.cls-2{font-family:SimplonNorm-Light, 'Simplon Norm';font-size:10px;}.cls-2,.cls-3{fill:#b2d236;}.cls-4{letter-spacing:0em;}.cls-3{font-family:SimplonNorm-Medium, 'Simplon Norm';font-size:11.53px;}</style></defs><g id="Layer_1-2"><g><g><text class="cls-3" transform="translate(2.73 9.8)"><tspan x="0" y="0">- Est. 2018 -</tspan></text><text class="cls-2" transform="translate(0 63.59)"><tspan x="0" y="0">#klantcent</tspan><tspan class="cls-4" x="47.53" y="0">r</tspan><tspan x="50.61" y="0">aal</tspan></text></g><g><path class="cls-1" d="M31.78,32.88c-4.98,0-9.01-4.03-9.01-9.01s4.03-9.01,9.01-9.01,9.01,4.03,9.01,9.01-4.03,9.01-9.01,9.01Zm0-13.59c-2.52,0-4.53,2.07-4.53,4.53s2.07,4.53,4.53,4.53,4.53-2.07,4.53-4.53-2.01-4.53-4.53-4.53Z"/><path class="cls-1" d="M44.87,48.88h-5.31c-1.23,0-2.24-1.01-2.24-2.24s1.01-2.24,2.24-2.24h2.85c-1.01-4.92-5.43-8.62-10.63-8.62s-9.56,3.69-10.63,8.62h2.91c1.23,0,2.24,1.01,2.24,2.24s-1.01,2.24-2.24,2.24h-5.37c-1.23,0-2.24-1.01-2.24-2.24,0-8.45,6.88-15.33,15.33-15.33s15.33,6.88,15.33,15.33c0,1.23-1.01,2.24-2.24,2.24h0Z"/><path class="cls-1" d="M50.07,35.4c-4.36,0-7.94-3.58-7.94-7.94s3.58-7.94,7.94-7.94,7.94,3.58,7.94,7.94-3.58,7.94-7.94,7.94Zm0-11.47c-1.9,0-3.47,1.57-3.47,3.47s1.57,3.47,3.47,3.47,3.47-1.57,3.47-3.47-1.57-3.47-3.47-3.47Z"/><path class="cls-1" d="M61.09,48.88h-16.22c-1.23,0-2.24-1.01-2.24-2.24s1.01-2.24,2.24-2.24h13.71c-1.01-3.75-4.42-6.55-8.5-6.55-1.46,0-2.8,.33-4.03,1.01-.78,.39-1.51,.95-2.13,1.57-.89,.89-2.29,.89-3.19,0-.89-.89-.89-2.29,0-3.19,.95-.95,2.07-1.73,3.25-2.35,1.9-.95,3.97-1.51,6.1-1.51,7.33,0,13.26,5.93,13.26,13.26,0,1.23-1.01,2.24-2.24,2.24h0Z"/><path class="cls-1" d="M13.49,35.4c-4.36,0-7.94-3.58-7.94-7.94s3.58-8,7.94-8,7.94,3.58,7.94,7.94-3.58,8-7.94,8Zm0-11.47c-1.9,0-3.47,1.57-3.47,3.47s1.57,3.47,3.47,3.47,3.47-1.57,3.47-3.47-1.57-3.47-3.47-3.47Z"/><path class="cls-1" d="M18.69,48.88H2.47c-1.23,0-2.24-1.01-2.24-2.24,0-4.98,2.74-9.45,7.16-11.75,1.9-.95,3.97-1.51,6.1-1.51,3.52,0,6.88,1.4,9.34,3.86,.89,.89,.89,2.29,0,3.19-.89,.89-2.29,.89-3.19,0-1.68-1.68-3.86-2.57-6.21-2.57-1.46,0-2.8,.33-4.03,1.01-2.24,1.18-3.8,3.19-4.47,5.54h13.71c1.23,0,2.24,1.01,2.24,2.24s-.95,2.24-2.18,2.24h0Z"/><path class="cls-1" d="M34.75,46.64c0,1.64-1.33,2.97-2.97,2.97s-2.97-1.33-2.97-2.97,1.33-2.97,2.97-2.97,2.97,1.33,2.97,2.97Z"/></g></g></g></svg>